<?xml version="1.0" encoding="utf-8"?>
<!-- Generator: Adobe Illustrator 29.8.1, SVG Export Plug-In . SVG Version: 9.03 Build 0)  -->
<svg version="1.1" xmlns="http://www.w3.org/2000/svg" xmlns:xlink="http://www.w3.org/1999/xlink" x="0px" y="0px"
	 viewBox="0 0 1024 1024" style="enable-background:new 0 0 1024 1024;" xml:space="preserve">
<g>
</g>
<g id="_x31___x2013__Layer">
	<g>
		<path style="fill:#BB7125;" d="M236.9848633,897.2832031c-25.3925781,0-48.4711914-11.8144531-63.3188477-32.4140625
			c-14.847168-20.5996094-18.7573242-46.2304688-10.7280273-70.3203125l203.6323242-610.8964844
			c10.640625-31.921875,40.3974609-53.3691406,74.0463867-53.3691406h142.7661133
			c33.6494141,0,63.40625,21.4472656,74.046875,53.3691406l203.6318359,610.8964844
			c8.0302734,24.0898438,4.1201172,49.7207031-10.7275391,70.3203125s-37.9257812,32.4140625-63.3183594,32.4140625H236.9848633z"/>
		<path d="M583.3831177,130.7828979c33.4331665,0,62.9995728,21.3101959,73.5720825,53.0276947l203.632019,610.8963623
			c7.9784546,23.9353027,4.0935059,49.4018555-10.6586914,69.8694458
			c-14.7523193,20.4677124-37.6833496,32.2064819-62.9133301,32.2064819H236.9848022
			c-25.2299957,0-48.1609955-11.7387695-62.9132996-32.2064819c-14.7521973-20.4675903-18.637207-45.934021-10.6587982-69.8694458
			l203.6321869-610.8963623c10.5724182-31.7174988,40.1387024-53.0276947,73.5720215-53.0276947H583.3831177
			 M583.3831177,129.7828979H440.6169128c-33.8111267,0-63.8288269,21.635498-74.5207214,53.7115021L162.4640045,794.3908081
			c-16.9549103,50.8648071,20.9046936,103.3920898,74.5207977,103.3920898h550.0303955
			c53.6160889,0,91.475708-52.5272827,74.5206909-103.3920898L657.9038696,183.4944
			C647.2119141,151.418396,617.1942139,129.7828979,583.3831177,129.7828979L583.3831177,129.7828979z"/>
	</g>
</g>
</svg>
