<?xml version="1.0" encoding="utf-8"?>
<!-- Generator: Adobe Illustrator 29.8.1, SVG Export Plug-In . SVG Version: 9.03 Build 0)  -->
<svg version="1.1" xmlns="http://www.w3.org/2000/svg" xmlns:xlink="http://www.w3.org/1999/xlink" x="0px" y="0px"
	 viewBox="0 0 1024 1024" style="enable-background:new 0 0 1024 1024;" xml:space="preserve">
<g>
</g>
<g id="_x32___x2013__Layer">
	<g>
		<path style="fill:#6450A1;" d="M911.0135498,514.2626953c-4.4368896,7.2713013-10.4023438,12.2504272-17.897522,14.9390869
			c-7.4996338,2.6925049-15.2856445,2.6585693-23.3580322-0.1019287l-127.2496338-44.1425476
			c-1.2039795-0.5172424-2.34729-0.507782-3.4276123,0.0210571c-1.0864258,0.5316772-2.060791,1.5094604-2.9278564,2.9304199
			L602.8018799,706.447937c-9.4517822,15.4898071-20.7984009,28.1324463-34.0477295,37.9407959
			c-13.2489624,9.8041382-27.5039062,16.5568237-42.7713013,20.2542725
			c-15.2654419,3.6941528-30.7344666,4.3391113-46.3970947,1.9364014
			c-15.6678162-2.4014282-30.6893921-7.9924316-45.0670776-16.765564
			c-24.6508789-15.0418091-40.3831482-34.3961182-47.1897278-58.0674438
			c-6.8097534-23.6732788-3.1706238-47.0447998,10.9054871-70.1130981
			c13.7870789-22.5946045,32.1851807-36.8461304,55.2029419-42.7580566
			c23.0106812-5.9074707,49.9216919-3.3652344,80.7330322,7.626709l44.0274658,15.8062134
			c4.5256958,1.4614868,8.251709-0.380188,11.18396-5.534668l157.5057983-258.1245728
			c12.3410034-20.224762,31.5394287-25.7507629,57.602356-16.5714722l140.2159424,48.4772339
			c11.8760986,3.9944458,19.7850342,11.6400757,23.7357788,22.9401855
			c3.9430542,11.3019714,2.5944824,22.4011536-4.0588379,33.3048401L911.0135498,514.2626953z"/>
	</g>
</g>
</svg>
