<?xml version="1.0" encoding="utf-8"?>
<!-- Generator: Adobe Illustrator 29.8.1, SVG Export Plug-In . SVG Version: 9.03 Build 0)  -->
<svg version="1.1" xmlns="http://www.w3.org/2000/svg" xmlns:xlink="http://www.w3.org/1999/xlink" x="0px" y="0px"
	 viewBox="0 0 1024 1024" style="enable-background:new 0 0 1024 1024;" xml:space="preserve">
<g>
</g>
<g id="_x32___x2013__Layer">
	<g>
		<path style="fill:#BCE4E5;" d="M315.0947266,767.5c-18.4702148,0-35.3657227-8.5146484-46.3535156-23.3613281
			s-14.1943359-33.4921875-8.7973633-51.15625l148.4179688-485.7744141
			c7.4599609-24.4150391,29.6230469-40.8183594,55.1513672-40.8183594H561.375
			c25.5283203,0,47.6914062,16.4033203,55.1503906,40.8183594l148.4179688,485.7744141
			c5.3974609,17.6640625,2.1914062,36.3095703-8.796875,51.15625C745.1591797,758.9853516,728.2636719,767.5,709.7929688,767.5
			H315.0947266z"/>
		<path d="M561.375,166.8900146c12.3343506,0,24.0943604,3.8784485,34.008728,11.2161407
			c9.9143677,7.337616,17.0598755,17.4512329,20.6639404,29.2473145l148.4182129,485.7748413
			c5.3501587,17.5110474,2.1713867,35.9952393-8.7211914,50.7129517C744.8519897,758.55896,728.1033325,767,709.7932129,767
			H315.0947266c-18.3101501,0-35.0587463-8.44104-45.9514465-23.1587524
			c-10.8926086-14.7177124-14.0713806-33.2019043-8.7212219-50.7129517l148.4183044-485.7748413
			c3.6040039-11.7960815,10.7494507-21.9096985,20.6638489-29.2473145
			c9.9143677-7.3376923,21.6743774-11.2161407,34.0087585-11.2161407H561.375 M561.375,165.8900146h-97.86203
			c-25.5783081,0-48.1551514,16.7091522-55.6289978,41.1712189L259.4656677,692.8360596
			C248.0445099,730.2176514,276.0073547,768,315.0947266,768h394.6984863c39.0874023,0,67.0502319-37.7823486,55.6290894-75.1639404
			L617.0040283,207.0612335C609.5301514,182.5991669,586.9532471,165.8900146,561.375,165.8900146L561.375,165.8900146z"/>
	</g>
	<g>
		<path style="fill:#BCE4E5;" d="M512,865.2988281c-18.3608398,0-33.2983398-14.9375-33.2983398-33.2988281
			S493.6391602,798.7011719,512,798.7011719c18.3613281,0,33.2988281,14.9375,33.2988281,33.2988281
			S530.3613281,865.2988281,512,865.2988281z"/>
		<path d="M512,799.2015381c18.085144,0,32.7984619,14.7133179,32.7984619,32.7984619S530.085144,864.7984619,512,864.7984619
			c-18.0851135,0-32.7984314-14.7133179-32.7984314-32.7984619S493.9148865,799.2015381,512,799.2015381 M512,798.2015381
			c-18.6663513,0-33.7984314,15.1320801-33.7984314,33.7984619S493.3336487,865.7984619,512,865.7984619
			c18.6663818,0,33.7984619-15.1320801,33.7984619-33.7984619S530.6663818,798.2015381,512,798.2015381L512,798.2015381z"/>
	</g>
</g>
</svg>
